# xmcd
#
# Track frame offsets: 
#        150
#        14922
#        30093
#        47356
#        64588
#        78607
#        96346
#        113198
#        129386
#        148031
#        161094
#        177359
#        190909
#        208346
#        224122
#        239672
#        254745
#        274698
#        294267
#        309358
#
# Disc length: 4375 seconds
#
# Revision: 1
# Processed by: cddbd v1.5PL3 Copyright (c) Steve Scherf et al.
# Submitted via: ExactAudioCopy v0.90b4
#
DISCID=34111514
DTITLE=Somebody's Darling - Still  Wearing Black
DYEAR=2003
DGENRE=Country
TTITLE0=Lament For Faith
TTITLE1=Shotgun Down The Avalanche
TTITLE2=That's Why I Wear Black
TTITLE3=Only Time
TTITLE4=Someone I Don't Want To Be
TTITLE5=You'll Remember Me
TTITLE6=A Catcher In The Rye
TTITLE7=Breathe
TTITLE8=Born With A Broken Wing
TTITLE9=Little John Of God
TTITLE10=Forever For Now
TTITLE11=Angel Flying High
TTITLE12=Like Two Fires
TTITLE13=Chapter Three
TTITLE14=If Not In Heaven
TTITLE15=Somebody's Darling
TTITLE16=Nowhere Slow
TTITLE17=Mask Of Shame
TTITLE18=Twilight Moment
TTITLE19=Dans meg gjennom kropp og ånd [Bonus Track]
EXTD=
EXTT0=
EXTT1=
EXTT2=
EXTT3=
EXTT4=
EXTT5=
EXTT6=
EXTT7=
EXTT8=
EXTT9=
EXTT10=
EXTT11=
EXTT12=
EXTT13=
EXTT14=
EXTT15=
EXTT16=
EXTT17=
EXTT18=
EXTT19=
PLAYORDER=
